<svg enable-background="new 0 0 512 512" fill="#ffffff" viewBox="0 0 512 512" xmlns="http://www.w3.org/2000/svg"><path d="m75.051 0h-59.983c-8.281 0-14.995 6.714-14.995 14.996v60.983c0 8.282 6.713 14.996 14.996 14.996 8.282 0 14.996-6.714 14.996-14.996v-45.987h44.987c8.282 0 14.996-6.714 14.996-14.996-.001-8.282-6.715-14.996-14.997-14.996z"/><path d="m496.932 0h-59.983c-8.282 0-14.996 6.714-14.996 14.996s6.713 14.996 14.996 14.996h44.987v45.987c0 8.282 6.714 14.996 14.996 14.996s14.996-6.714 14.996-14.996v-60.983c0-8.282-6.714-14.996-14.996-14.996z"/><path d="m75.051 481.864h-44.987v-45.987c0-8.282-6.714-14.996-14.996-14.996s-14.996 6.714-14.996 14.996v60.983c0 8.282 6.713 14.996 14.996 14.996h59.983c8.282 0 14.996-6.714 14.996-14.996s-6.714-14.996-14.996-14.996z"/><path d="m496.932 420.881c-8.282 0-14.996 6.714-14.996 14.996v45.987h-44.987c-8.282 0-14.996 6.714-14.996 14.996s6.714 14.996 14.996 14.996h59.983c8.282 0 14.996-6.714 14.996-14.996v-60.983c0-8.282-6.714-14.996-14.996-14.996z"/><path d="m472.37 123.023-208.853-121.002c-4.649-2.694-10.386-2.694-15.035 0l-208.938 121.001c-4.606 2.669-7.481 7.638-7.481 12.966 0 .03.003.06.003.089v239.924c0 5.379 2.923 10.413 7.63 13.063l208.787 120.916c2.249 1.303 4.925 2.02 7.518 2.02 2.707 0 5.352-.766 7.518-2.02l208.702-120.917c.035-.02.069-.04.104-.06 4.837-3.49 7.444-6.423 7.517-12.821.001-.06.006-.119.006-.179v-239.924c0-.03.003-.06.003-.089 0-5.333-2.877-10.303-7.481-12.967zm-231.366 347.963-163.826-94.917 126.299-72.429c7.185-4.12 9.669-13.284 5.548-20.468-4.119-7.185-13.283-9.668-20.468-5.548l-126.502 72.492v-188.207l178.949 102.77zm14.996-232.28-178.844-102.761 178.844-103.618 178.844 103.618zm193.954 111.41-126.511-72.493c-7.184-4.119-16.348-1.637-20.468 5.548-4.121 7.185-1.637 16.348 5.548 20.468l126.299 72.428-163.827 94.917v-206.305l178.958-102.77v188.207z"/></svg>
